<svg xmlns="http://www.w3.org/2000/svg" viewBox="0 0 185 38" width="185" height="38"><title>&lt;Group&gt;</title><style>		.s0 { fill: #000000 } 	</style><g id="&lt;Group&gt;"><path id="&lt;Compound Path&gt;" fill-rule="evenodd" class="s0" d="m26.6 15.6c1.1 2.1 1.7 4.5 1.7 7.1q0 1.5-0.2 2.7h-20q0.2 3 2 4.6 1.8 1.7 4.5 1.7 3.8 0 5.4-3.3h7.6c-0.8 2.7-2.4 4.9-4.6 6.5-2.2 1.7-5 2.6-8.3 2.6-2.6 0-5-0.6-7.1-1.8-2.1-1.1-3.7-2.8-4.9-4.9-1.2-2.2-1.8-4.7-1.8-7.5 0-2.8 0.6-5.3 1.8-7.5 1.1-2.1 2.8-3.8 4.8-4.9 2.1-1.2 4.5-1.8 7.2-1.8 2.6 0 5 0.6 7 1.7 2.1 1.1 3.7 2.8 4.9 4.8zm-5.6 5.1q-0.1-2.6-1.9-4.2-1.9-1.6-4.6-1.6-2.5 0-4.3 1.6-1.7 1.5-2.1 4.2z"></path><path id="&lt;Path&gt;" class="s0" d="m48.7 22.3q-1.9-0.8-4.9-1.5-2.9-0.7-4.3-1.4-1.4-0.8-1.4-2.1 0-1.2 1-1.9 1-0.7 2.9-0.7 2 0 3.2 1 1.2 0.9 1.4 2.5v0.1h6.7v-0.1c-0.2-2.7-1.3-5-3.3-6.6-1.9-1.6-4.5-2.5-7.8-2.5q-3.3 0-5.8 1.1-2.4 1.1-3.7 3-1.4 1.9-1.4 4.2 0 2.8 1.5 4.4 1.4 1.7 3.3 2.5 2 0.7 5.1 1.5 2.9 0.8 4.3 1.4 1.3 0.7 1.3 2 0 1.2-1.1 2-1.1 0.8-3.1 0.8-2 0-3.3-1.1-1.4-1-1.6-2.5v-0.1h-7v0.1q0.1 2.5 1.7 4.6 1.6 2.1 4.2 3.3 2.7 1.2 6.1 1.2 3.3 0 5.7-1.1 2.5-1 3.8-2.9 1.3-1.9 1.3-4.3 0-2.7-1.5-4.4-1.4-1.7-3.3-2.5z"></path><path id="&lt;Path&gt;" class="s0" d="m75.3 27.8q-1.3 3.7-5.5 3.7-2.9 0-4.6-2.2-1.8-2.1-1.8-6 0-3.9 1.8-6.1 1.7-2.1 4.6-2.1 2.1 0 3.5 1 1.4 1 2 2.8h7.5c-0.7-3.1-2.3-5.5-4.5-7.2-2.2-1.7-5-2.6-8.4-2.6-2.7 0-5 0.6-7.1 1.8-2 1.2-3.6 2.8-4.8 5-1.1 2.1-1.7 4.6-1.7 7.4 0 2.8 0.6 5.4 1.7 7.5 1.2 2.1 2.8 3.8 4.8 4.9 2.1 1.2 4.4 1.8 7.1 1.8 3.3 0 6.2-0.9 8.4-2.6 2.2-1.8 3.8-4.2 4.5-7.1v-0.1h-7.5z"></path><path id="&lt;Compound Path&gt;" fill-rule="evenodd" class="s0" d="m107.4 9.6h7.1v27.5h-7.1v-4q-1.3 1.9-3.6 3.1-2.4 1.3-5.4 1.3-3.5 0-6.4-1.8-2.8-1.8-4.5-5c-1.1-2.2-1.6-4.7-1.6-7.5 0-2.7 0.5-5.2 1.6-7.4q1.7-3.2 4.5-4.9 2.9-1.8 6.4-1.8 3.1 0 5.4 1.3 2.2 1.2 3.6 3zm0 13.7q0-2.5-1-4.3-0.9-1.8-2.6-2.7-1.7-1-3.6-1-1.9 0-3.5 1-1.7 0.9-2.7 2.7-1 1.8-1 4.2 0 2.5 1 4.3 1 1.9 2.7 2.9 1.6 0.9 3.5 0.9 1.9 0 3.6-0.9 1.7-1 2.6-2.8 1-1.8 1-4.3z"></path><path id="&lt;Compound Path&gt;" fill-rule="evenodd" class="s0" d="m161.4 0.4h7.1v36.7h-7.1v-4q-1.3 2-3.5 3.2-2.4 1.2-5.4 1.2-3.5 0-6.4-1.8c-1.9-1.2-3.4-2.9-4.5-5-1.1-2.2-1.7-4.7-1.7-7.5 0-2.7 0.6-5.2 1.7-7.4q1.6-3.2 4.5-4.9 2.9-1.8 6.4-1.8 2.7 0 5.1 1.2 2.4 1.1 3.8 3zm0.1 22.9q0-2.5-1-4.3-1-1.8-2.7-2.7-1.6-1-3.6-1-1.9 0-3.5 1-1.6 0.9-2.6 2.7-1 1.8-1 4.2 0 2.5 1 4.3 1 1.9 2.6 2.9 1.7 0.9 3.5 0.9 2 0 3.6-0.9 1.7-1 2.7-2.8 1-1.8 1-4.3z"></path><path id="&lt;Path&gt;" class="s0" d="m138 9.6h-3.1c-1.4 0-2.8 0.5-3.9 1.4-0.3 0.2-1.1 1.1-1.5 1.5-0.2 0.2-0.3 0.3-0.4 0.4-0.3 0.4-0.8 1-1.1 1.4q-0.1 0.1-0.2 0.3l-0.2 0.2q-0.1 0-0.1 0.1v-5.3h-7v27.5h7v-16.6c0.1-0.6 0.4-2.6 0.8-3 0.2-0.2 1.8-0.5 4.3-0.7 2-0.2 4.3-0.4 5.4-0.4 0.4 0 0.6-0.2 0.6-0.6v-5.6c0-0.3-0.2-0.6-0.6-0.6z"></path><path id="&lt;Compound Path&gt;" fill-rule="evenodd" class="s0" d="m184.8 7.2q0 1.9-0.8 3.5-0.9 1.5-2.4 2.4-1.5 0.8-3.4 0.8-2 0-3.5-0.8-1.5-0.9-2.3-2.4-0.9-1.6-0.9-3.5 0-2 0.9-3.5 0.8-1.6 2.3-2.4 1.5-0.9 3.5-0.9 1.9 0 3.4 0.9 1.5 0.8 2.4 2.4 0.8 1.5 0.8 3.5zm-2-2.9q-0.7-1.3-1.8-1.9-1.2-0.7-2.8-0.7-1.6 0-2.8 0.7-1.2 0.6-1.9 1.9-0.6 1.2-0.6 2.9 0 1.6 0.6 2.9 0.7 1.2 1.9 1.9 1.2 0.7 2.8 0.7 1.6 0 2.8-0.7 1.1-0.7 1.8-1.9 0.6-1.3 0.6-2.9 0-1.7-0.6-2.9z"></path><path id="&lt;Path&gt;" class="s0" d="m179.3 8.2q-0.2 0.4-0.5 0.6-0.2 0.2-0.7 0.2-0.7 0-1-0.4-0.4-0.5-0.4-1.5 0-0.9 0.4-1.4 0.3-0.4 1-0.4 0.4 0 0.7 0.2 0.3 0.2 0.5 0.6v0.1h2.3l-0.1-0.2q-0.3-1.2-1.2-1.9-0.9-0.7-2.2-0.7-1 0-1.8 0.5-0.9 0.4-1.3 1.3-0.5 0.8-0.5 1.9 0 1.2 0.5 2 0.4 0.9 1.3 1.3 0.8 0.5 1.8 0.5 1.3 0 2.2-0.7 0.9-0.7 1.2-1.9l0.1-0.2h-2.3z"></path></g></svg>