<svg xmlns="http://www.w3.org/2000/svg" id="Layer_1" data-name="Layer 1" viewBox="0 0 54 40.13"><defs><style>.cls-1{fill:#1e1d1b;}</style></defs><path class="cls-1" d="M35.93,6.39V26.46H30.48A5.46,5.46,0,0,1,25,21V6.39a5.46,5.46,0,1,1,10.91,0Z" transform="translate(-0.5 -0.93)"></path><path class="cls-1" d="M47.94,21a5.46,5.46,0,0,1-5.45,5.46H37V21a5.46,5.46,0,1,1,10.91,0Z" transform="translate(-0.5 -0.93)"></path><path class="cls-1" d="M6,15.54h5.45V21A5.46,5.46,0,1,1,6,15.54Z" transform="translate(-0.5 -0.93)"></path><path class="cls-1" d="M21.83,17.14A5.47,5.47,0,0,1,23.42,21V35.61a5.46,5.46,0,1,1-10.91,0V15.54H18A5.47,5.47,0,0,1,21.83,17.14Z" transform="translate(-0.5 -0.93)"></path><path class="cls-1" d="M54.5,23.72v2.74H51.77a2.73,2.73,0,1,1,2.73-2.74Z" transform="translate(-0.5 -0.93)"></path></svg>