<svg xmlns="http://www.w3.org/2000/svg" width="425.000000pt" height="425.000000pt" viewBox="0 0 425.000000 425.000000" preserveAspectRatio="xMidYMid meet"><g transform="translate(0.000000,425.000000) scale(0.100000,-0.100000)" fill="#000000" stroke="none"><path d="M1935 3718 c-709 -80 -1289 -608 -1427 -1301 -32 -160 -32 -424 0 -584 140 -702 719 -1224 1444 -1302 759 -83 1484 373 1732 1087 60 174 80 300 80 507 0 146 -4 201 -22 292 -166 832 -952 1398 -1807 1301z m405 -42 c198 -27 348 -74 530 -167 726 -372 1049 -1218 747 -1960 -243 -596 -836 -989 -1492 -989 -814 0 -1497 595 -1595 1390 -59 482 135 991 505 1322 359 321 831 467 1305 404z"></path><path d="M2214 3131 c-166 -47 -283 -175 -320 -350 -8 -40 -14 -126 -14 -218 l0 -153 -143 0 c-98 0 -147 -4 -155 -12 -8 -8 -12 -67 -12 -200 0 -175 1 -188 19 -198 11 -5 81 -10 155 -10 l136 0 0 -433 c0 -323 3 -436 12 -445 17 -17 389 -17 406 0 9 9 12 122 12 445 l0 433 164 0 c136 0 167 3 180 16 13 13 16 45 16 198 0 140 -3 186 -13 195 -8 6 -77 12 -178 13 l-164 3 -3 111 c-3 125 9 177 48 206 21 15 47 18 156 20 93 2 136 7 147 17 15 12 17 38 17 185 0 120 -4 176 -12 184 -20 20 -378 15 -454 -7z"></path></g></svg>