<svg xmlns="http://www.w3.org/2000/svg" width="425.000000pt" height="425.000000pt" viewBox="0 0 425.000000 425.000000" preserveAspectRatio="xMidYMid meet"><g transform="translate(0.000000,425.000000) scale(0.100000,-0.100000)" fill="#000000" stroke="none"><path d="M1935 3718 c-709 -80 -1289 -608 -1427 -1301 -32 -160 -32 -424 0 -584 140 -702 719 -1224 1444 -1302 759 -83 1484 373 1732 1087 60 174 80 300 80 507 0 146 -4 201 -22 292 -166 832 -952 1398 -1807 1301z m405 -42 c198 -27 348 -74 530 -167 726 -372 1049 -1218 747 -1960 -243 -596 -836 -989 -1492 -989 -814 0 -1497 595 -1595 1390 -59 482 135 991 505 1322 359 321 831 467 1305 404z"></path><path d="M1770 2955 c-8 -2 -49 -9 -90 -15 -192 -30 -333 -151 -392 -334 -23 -70 -23 -78 -23 -536 0 -453 1 -467 22 -536 29 -92 65 -154 122 -212 83 -86 175 -125 333 -142 124 -13 695 -13 813 0 158 18 254 60 348 154 60 61 92 122 119 234 20 82 21 109 21 492 -2 509 -10 563 -117 707 -76 103 -189 162 -356 182 -73 10 -758 14 -800 6z m795 -165 c169 -25 257 -97 301 -246 14 -50 18 -116 21 -414 5 -479 -8 -583 -88 -674 -104 -118 -167 -129 -684 -123 -214 2 -406 7 -425 11 -99 21 -182 81 -225 167 -42 81 -49 160 -50 504 0 500 9 572 87 660 73 82 151 113 318 124 156 10 658 4 745 -9z"></path><path d="M2554 2616 c-41 -41 -44 -78 -11 -127 47 -71 144 -62 178 17 22 49 15 80 -27 119 -41 38 -96 35 -140 -9z"></path><path d="M1986 2496 c-129 -55 -219 -143 -268 -264 -19 -48 -23 -75 -23 -172 0 -109 2 -119 32 -183 79 -167 239 -269 422 -268 194 0 362 117 428 299 31 85 32 222 3 308 -40 116 -126 212 -238 266 -61 29 -77 32 -182 35 -104 3 -120 1 -174 -21z m291 -154 c106 -55 173 -158 173 -267 0 -86 -23 -146 -81 -209 -64 -70 -130 -100 -224 -100 -220 -1 -366 225 -277 427 28 62 101 131 165 156 70 27 184 23 244 -7z"></path></g></svg>