<svg xmlns="http://www.w3.org/2000/svg" width="425.000000pt" height="425.000000pt" viewBox="0 0 425.000000 425.000000" preserveAspectRatio="xMidYMid meet"><g transform="translate(0.000000,425.000000) scale(0.100000,-0.100000)" fill="#000000" stroke="none"><path d="M1935 3718 c-709 -80 -1289 -608 -1427 -1301 -32 -160 -32 -424 0 -584 140 -702 719 -1224 1444 -1302 759 -83 1484 373 1732 1087 60 174 80 300 80 507 0 146 -4 201 -22 292 -166 832 -952 1398 -1807 1301z m405 -42 c198 -27 348 -74 530 -167 726 -372 1049 -1218 747 -1960 -243 -596 -836 -989 -1492 -989 -814 0 -1497 595 -1595 1390 -59 482 135 991 505 1322 359 321 831 467 1305 404z"></path><path d="M1439 2903 c-74 -38 -111 -93 -117 -172 -5 -71 10 -121 51 -167 90 -103 236 -107 326 -9 50 54 62 84 63 150 1 171 -169 276 -323 198z m178 -74 c114 -71 72 -249 -63 -265 -112 -14 -195 123 -134 221 39 63 132 84 197 44z"></path><path d="M2414 2436 c-28 -7 -77 -27 -107 -44 -31 -18 -58 -32 -60 -32 -2 0 -2 14 1 30 l4 30 -196 0 -196 0 0 -550 0 -550 200 0 200 0 0 313 c0 336 4 373 49 418 52 51 160 48 195 -6 26 -40 36 -166 36 -457 l0 -268 195 0 195 0 0 364 c0 384 -7 466 -48 560 -25 55 -83 120 -138 152 -81 47 -226 65 -330 40z m245 -91 c61 -21 106 -57 136 -109 47 -80 55 -151 55 -508 l0 -328 -120 0 -120 0 0 293 c0 302 -4 341 -43 398 -36 54 -81 74 -162 74 -83 -1 -136 -26 -174 -81 -44 -64 -51 -118 -51 -411 l0 -273 -120 0 -120 0 0 470 0 470 115 0 115 0 0 -70 0 -70 30 0 c23 0 35 9 59 43 35 51 89 90 157 111 59 19 177 15 243 -9z"></path><path d="M1340 1870 l0 -550 200 0 200 0 0 550 0 550 -200 0 -200 0 0 -550z m320 0 l0 -470 -120 0 -120 0 0 470 0 470 120 0 120 0 0 -470z"></path></g></svg>