<svg xmlns="http://www.w3.org/2000/svg" width="425.000000pt" height="425.000000pt" viewBox="0 0 425.000000 425.000000" preserveAspectRatio="xMidYMid meet"><g transform="translate(0.000000,425.000000) scale(0.100000,-0.100000)" fill="#000000" stroke="none"><path d="M1935 3718 c-709 -80 -1289 -608 -1427 -1301 -32 -160 -32 -424 0 -584 140 -702 719 -1224 1444 -1302 759 -83 1484 373 1732 1087 60 174 80 300 80 507 0 146 -4 201 -22 292 -166 832 -952 1398 -1807 1301z m405 -42 c198 -27 348 -74 530 -167 726 -372 1049 -1218 747 -1960 -243 -596 -836 -989 -1492 -989 -814 0 -1497 595 -1595 1390 -59 482 135 991 505 1322 359 321 831 467 1305 404z"></path><path d="M1263 2931 c-111 -38 -187 -117 -223 -230 -19 -60 -20 -91 -20 -576 0 -485 1 -516 20 -576 36 -116 122 -201 234 -234 74 -22 1628 -22 1702 0 112 33 198 118 234 234 19 60 20 91 20 576 0 485 -1 516 -20 576 -25 80 -73 146 -136 188 -95 63 -67 61 -953 61 -749 -1 -810 -2 -858 -19z m1712 -105 c66 -30 120 -91 139 -157 24 -78 24 -1010 0 -1088 -19 -66 -73 -127 -139 -157 l-50 -24 -800 0 -800 0 -50 24 c-66 30 -120 91 -139 157 -24 78 -24 1010 0 1088 19 66 73 127 139 157 l50 24 800 0 800 0 50 -24z"></path><path d="M1292 2668 c-35 -35 -19 -56 244 -313 l257 -250 -94 -91 c-52 -50 -165 -157 -251 -239 -86 -81 -159 -154 -162 -162 -13 -32 33 -76 67 -64 9 3 130 114 268 245 l251 238 117 -116 c65 -64 126 -116 136 -116 10 0 71 53 137 117 l118 117 53 -50 c279 -267 445 -423 461 -431 27 -15 65 4 73 35 7 29 -1 37 -296 315 l-213 202 256 250 c206 201 256 255 256 276 0 33 -21 51 -54 47 -17 -2 -143 -117 -406 -373 -210 -203 -385 -369 -388 -367 -4 2 -177 168 -385 370 -384 373 -410 395 -445 360z"></path></g></svg>