<svg xmlns="http://www.w3.org/2000/svg" width="425.000000pt" height="425.000000pt" viewBox="0 0 425.000000 425.000000" preserveAspectRatio="xMidYMid meet"><g transform="translate(0.000000,425.000000) scale(0.100000,-0.100000)" fill="#000000" stroke="none"><path d="M1935 3718 c-709 -80 -1289 -608 -1427 -1301 -32 -160 -32 -424 0 -584 140 -702 719 -1224 1444 -1302 759 -83 1484 373 1732 1087 60 174 80 300 80 507 0 146 -4 201 -22 292 -166 832 -952 1398 -1807 1301z m405 -42 c198 -27 348 -74 530 -167 726 -372 1049 -1218 747 -1960 -243 -596 -836 -989 -1492 -989 -814 0 -1497 595 -1595 1390 -59 482 135 991 505 1322 359 321 831 467 1305 404z"></path><path d="M1582 3214 c-35 -17 -63 -40 -80 -67 l-27 -41 -3 -1021 -2 -1021 23 -45 c16 -29 40 -54 72 -74 l48 -30 512 0 512 0 48 30 c32 20 56 45 72 74 l23 44 0 1012 0 1012 -23 44 c-16 29 -40 54 -72 74 l-48 30 -501 3 -501 3 -53 -27z m713 -89 c0 -19 -8 -20 -164 -23 -165 -3 -189 2 -178 33 6 13 28 15 174 13 160 -3 168 -4 168 -23z m314 -131 c21 -27 21 -32 21 -876 l0 -849 -25 -24 -24 -25 -456 0 -456 0 -24 25 -25 24 0 849 c0 844 0 849 21 876 l20 26 464 0 464 0 20 -26z m-311 -1923 c2 -28 -1 -47 -10 -52 -15 -10 -298 -12 -322 -3 -11 4 -16 19 -16 48 0 24 3 46 7 50 4 3 81 5 172 4 l166 -3 3 -44z"></path></g></svg>