<svg xmlns="http://www.w3.org/2000/svg" width="140" height="140" viewBox="0 0 140 140">
  <g id="Group_514" data-name="Group 514" transform="translate(-9442 -1355)">
    <path id="Path_465" data-name="Path 465" d="M70,0A70,70,0,1,1,0,70,70,70,0,0,1,70,0Z" transform="translate(9442 1355)" fill="#b92b50"/>
    <g id="Group_512" data-name="Group 512" transform="translate(9110.98 1148.013)">
      <path id="Path_450" data-name="Path 450" d="M408.485,253.287a.449.449,0,0,0,.206.048.441.441,0,0,0,.2-.048,8.136,8.136,0,0,0,4.175-6.846c0-2.747-1.919-5.814-3.8-8.164a36.507,36.507,0,0,1,3.03-3.2.441.441,0,1,0-.59-.655,35.692,35.692,0,0,0-3.016,3.158,35.433,35.433,0,0,0-3.018-3.158.441.441,0,0,0-.589.655,35.683,35.683,0,0,1,3.032,3.2c-1.884,2.35-3.8,5.417-3.8,8.164A8.137,8.137,0,0,0,408.485,253.287Zm.206-.9a7.874,7.874,0,0,1-3.094-3.73,5.517,5.517,0,0,1,6.189,0A7.893,7.893,0,0,1,408.691,252.384Zm0-13.4c1.755,2.214,3.5,5.022,3.5,7.456a6.288,6.288,0,0,1-.15,1.341,6.4,6.4,0,0,0-6.7,0,6.322,6.322,0,0,1-.149-1.341C405.193,244.008,406.935,241.2,408.692,238.985Z" transform="translate(-14.781 -0.445)" fill="#fff"/>
      <path id="Path_451" data-name="Path 451" d="M447.267,253.72a5.8,5.8,0,0,0,6.044-6.14,10.97,10.97,0,0,0-1.733-5.294,20.52,20.52,0,0,1-1.627-3.628c-.852-2.736-1.835-3.105-2.683-3.105s-1.833.369-2.687,3.105a20.465,20.465,0,0,1-1.622,3.628,10.92,10.92,0,0,0-1.733,5.294A5.794,5.794,0,0,0,447.267,253.72ZM443.734,242.7a21.162,21.162,0,0,0,1.691-3.781c.773-2.484,1.494-2.484,1.842-2.484s1.07,0,1.841,2.484A21.211,21.211,0,0,0,450.8,242.7a10.1,10.1,0,0,1,1.631,4.881,5.163,5.163,0,1,1-10.324,0A10.125,10.125,0,0,1,443.734,242.7Z" transform="translate(-26.317 -0.834)" fill="#fff"/>
      <path id="Path_452" data-name="Path 452" d="M427.079,243.56a.439.439,0,0,0,.268-.562,3.28,3.28,0,0,1,.1-2.623,1.831,1.831,0,0,1,1.13-.965.442.442,0,0,0,.314-.538.435.435,0,0,0-.536-.314,2.7,2.7,0,0,0-1.688,1.405,4.159,4.159,0,0,0-.149,3.331.434.434,0,0,0,.561.266Z" transform="translate(-21.634 -1.768)" fill="#fff"/>
      <path id="Path_453" data-name="Path 453" d="M426.162,248.724a3.641,3.641,0,0,1-.582,1.993,2.507,2.507,0,0,0-.433,1.267c0,.594.325,1.59,2.519,1.59s2.521-1,2.521-1.59a2.5,2.5,0,0,0-.435-1.267,3.658,3.658,0,0,1-.582-1.993,4.716,4.716,0,0,1,1.119-2.181,9.551,9.551,0,0,0,2.243-5.718c0-2.753-1.86-5.724-4.865-5.724s-4.865,2.971-4.865,5.724a9.555,9.555,0,0,0,2.243,5.718A4.715,4.715,0,0,1,426.162,248.724Zm1.5-12.741c2.383,0,3.984,2.5,3.984,4.842a8.816,8.816,0,0,1-2.082,5.211,5.148,5.148,0,0,0-1.28,2.688,4.5,4.5,0,0,0,.7,2.423,1.8,1.8,0,0,1,.322.837c0,.615-1.026.708-1.64.708s-1.64-.093-1.64-.708a1.783,1.783,0,0,1,.324-.837,4.521,4.521,0,0,0,.694-2.423,5.15,5.15,0,0,0-1.281-2.688,8.834,8.834,0,0,1-2.082-5.211C423.681,238.485,425.283,235.983,427.666,235.983Z" transform="translate(-20.559 -0.693)" fill="#fff"/>
      <path id="Path_454" data-name="Path 454" d="M385.05,240.824c0,5.276,3.6,11.579,3.754,11.842a.436.436,0,0,0,.38.22h0a.441.441,0,0,0,.379-.213c.154-.259,3.758-6.4,3.758-11.849,0-1.966-1.257-3.158-3.457-3.361A8.881,8.881,0,0,1,392.671,235a.441.441,0,1,0-.47-.745,12.252,12.252,0,0,0-2.573,2.093v-3.019a.441.441,0,1,0-.881,0v3.021a12.3,12.3,0,0,0-2.575-2.1.445.445,0,0,0-.608.138.44.44,0,0,0,.14.607,8.876,8.876,0,0,1,2.8,2.467C386.3,237.665,385.05,238.857,385.05,240.824Zm4.136-2.522c1.486,0,3.256.436,3.256,2.522a17.239,17.239,0,0,1-.821,4.874,4.85,4.85,0,0,0-2.493-.249.44.44,0,0,0-.377.5.444.444,0,0,0,.495.377,3.889,3.889,0,0,1,2.1.216,34.619,34.619,0,0,1-2.155,4.991,30.922,30.922,0,0,1-3.087-8.687,5.975,5.975,0,0,1,3.214-.4.44.44,0,1,0,.187-.861,6.639,6.639,0,0,0-3.513.366c-.035-.381-.062-.756-.062-1.126C385.929,238.738,387.7,238.3,389.186,238.3Z" transform="translate(-8.76 0)" fill="#fff"/>
      <path id="Path_455" data-name="Path 455" d="M448.4,254.273c2.025,0,3.551-1.789,3.551-4.164,0-2.282-1.725-5.225-3.551-5.225s-3.553,2.943-3.553,5.225C444.846,252.484,446.374,254.273,448.4,254.273Zm0-8.509c1.1,0,2.67,2.247,2.67,4.345,0,1.873-1.149,3.283-2.67,3.283s-2.671-1.41-2.671-3.283C445.728,248.011,447.295,245.765,448.4,245.765Z" transform="translate(-27.449 -3.75)" fill="#fff"/>
      <path id="Path_456" data-name="Path 456" d="M448.112,252.53a.419.419,0,0,0,.1-.011.441.441,0,0,0,.329-.529,3.465,3.465,0,0,1,.661-2.837.44.44,0,1,0-.72-.505,4.366,4.366,0,0,0-.8,3.54A.443.443,0,0,0,448.112,252.53Z" transform="translate(-28.303 -4.868)" fill="#fff"/>
      <path id="Path_457" data-name="Path 457" d="M387.871,318.427H358.027v-71.7h12.2a.5.5,0,1,0,0-1.006h-12.7a.5.5,0,0,0-.5.5v72.7a.5.5,0,0,0,.5.5h30.348a.5.5,0,1,0,0-1.006Z" transform="translate(0 -4.014)" fill="#fff"/>
      <path id="Path_458" data-name="Path 458" d="M470.106,245.726H457.4a.5.5,0,1,0,0,1.006h12.2v71.7H439.76a.5.5,0,1,0,0,1.006h30.347a.5.5,0,0,0,.507-.5v-72.7A.5.5,0,0,0,470.106,245.726Z" transform="translate(-25.701 -4.014)" fill="#fff"/>
      <path id="Path_459" data-name="Path 459" d="M424.893,341.59,409,355.608a.134.134,0,0,0-.012.184.125.125,0,0,0,.179.021l8.032-6.4,8.03,6.4a.125.125,0,0,0,.179-.021.134.134,0,0,0-.013-.184l-7.58-6.689,7.92-6.314a.131.131,0,0,0,.027-.023.659.659,0,0,0,.054-.933A.651.651,0,0,0,424.893,341.59Z" transform="translate(-16.233 -33.923)" fill="#fff"/>
      <path id="Path_460" data-name="Path 460" d="M416.022,347.556l-6.761-5.966a.651.651,0,0,0-.924.059.66.66,0,0,0,.051.933.356.356,0,0,0,.03.023l6.939,5.53Z" transform="translate(-15.985 -33.923)" fill="#fff"/>
    </g>
    <g id="Group_513" data-name="Group 513" transform="translate(-7.368 3)">
      <path id="Path_466" data-name="Path 466" d="M132.118,217.354a.52.52,0,1,0,0,1.04h.851c2.8,0,3.675.529,3.675,3.845v4.6a.526.526,0,0,0,1.04,0v-4.6c0-3.279,1.317-3.947,3.3-3.947,2.517,0,3.3.524,3.3,3.808v14.728c0,3.274-.158,4.048-4.322,4.048h-1.67c-3.53,0-4.286-.365-4.286-4.221v-3.409a.519.519,0,0,0-1.038,0v4.263c0,3.746,1.574,4.406,4.883,4.406H140.4c4.462,0,4.918-1.081,4.918-5.7V221.659c0-3.255-1.137-4.408-4.34-4.408-1.87,0-3.13.665-3.762,1.976-.738-1.716-2.574-1.873-4.555-1.873Z" transform="translate(9358.771 1193.84)" fill="#fff"/>
      <path id="Path_467" data-name="Path 467" d="M228.555,237.213v-9.035a3.26,3.26,0,0,0-1.881-3.126c1.122-.625,1.54-1.834,1.54-4.2v-2.622a.521.521,0,0,0-1.04.033v2.42c0,3.136-.643,3.947-3.128,3.947h-3.169a.48.48,0,0,0-.453.521.473.473,0,0,0,.453.485h3.135c2.585,0,3.5.829,3.5,3.163v8.556c0,3.734-1.023,3.912-4.253,3.912h-.989c-3.384,0-3.982-.615-3.982-4.118V233.6a.519.519,0,0,0-1.037-.033v3.747c0,3.516.619,4.987,4.439,4.987h2.422c3.484,0,4.44-1.093,4.44-5.087" transform="translate(9289.559 1193.453)" fill="#fff"/>
      <path id="Path_468" data-name="Path 468" d="M307.208,236.975v-5.659c0-1.522-.139-3.171-1.62-3.913,1.326-.652,1.62-2.04,1.62-3.891v-2.625c0-2.555-1.446-3.761-4.542-3.792h-2.351c-3,0-4.341,1.326-4.341,4.3v2.727a.473.473,0,0,0,.487.455.482.482,0,0,0,.521-.455V222.25c0-3.454.654-4.15,3.912-4.15h1.159c3.417,0,4.115,1.183,4.115,2.957v2.59c0,2.765-1.059,3.231-3.434,3.231h-1.466a.52.52,0,0,0,0,1.038H302.8c2.8,0,3.366.689,3.366,4.084v4.671c0,4.117-1.42,4.117-3.774,4.117h-1.807c-3.64,0-3.948-1.014-3.948-4.152v-3.577a.52.52,0,0,0-1.038,0v4.295c0,3.32,1.13,4.439,4.475,4.439H302.7c2.992,0,4.51-.744,4.51-4.816" transform="translate(9226.185 1193.965)" fill="#fff"/>
      <path id="Path_469" data-name="Path 469" d="M379.048,217.1c-3.665,0-4.336,1.666-4.336,4.951v2.012a.52.52,0,0,0,1.04,0v-1.636c0-3.641.908-4.286,3.468-4.286h1.295c3.288,0,4.117.427,4.117,3.637v15.068c0,2.885-.53,3.912-3.5,3.912h-2.15c-3.1,0-3.572-.539-3.572-4.118v-3.512a.519.519,0,0,0-1.038,0v3.751c0,4.088.774,4.917,4.609,4.917h2.591c3.412,0,4.1-1.778,4.1-4.645V221.636c0-3.2-.692-4.541-4.984-4.541Z" transform="translate(9162.497 1193.964)" fill="#fff"/>
    </g>
  </g>
</svg>
