<svg xmlns="http://www.w3.org/2000/svg" viewBox="0 0 28 28" width="28" height="28"><title>&lt;Group&gt;</title><style>		.s0 { fill: #ffffff;stroke: #231f20;stroke-miterlimit:10;stroke-width: .5 } 		.s1 { fill: #000000 } 	</style><g id="&lt;Group&gt;"><path id="&lt;Path&gt;" class="s0" d="m26.5 14.2c0 7-5.6 12.6-12.6 12.6-6.9 0-12.5-5.6-12.5-12.6 0-6.9 5.6-12.5 12.5-12.5 7 0 12.6 5.6 12.6 12.5z"></path><g id="&lt;Group&gt;"><g id="&lt;Group&gt;"><path id="&lt;Path&gt;" class="s1" d="m11.4 11.4q0 0 0-0.2c0-0.1 0.1-0.2 0.2-0.2h5.4c0.1 0 0.2 0.1 0.2 0.2v5.3c0 0.2-0.1 0.3-0.2 0.3-0.2 0-0.3-0.1-0.3-0.3v-5h-5.1q-0.1 0-0.2-0.1z"></path></g><g id="&lt;Group&gt;"><path id="&lt;Path&gt;" class="s1" d="m10.8 17.4c-0.1-0.1-0.1-0.2 0-0.3l5.9-6c0.1-0.1 0.3-0.1 0.4 0 0.1 0.1 0.1 0.3 0 0.4l-6 5.9c-0.1 0.1-0.2 0.1-0.3 0z"></path></g></g></g></svg>